<?xml version="1.0" standalone="no"?>
<!DOCTYPE svg PUBLIC "-//W3C//DTD SVG 20010904//EN"
 "http://www.w3.org/TR/2001/REC-SVG-20010904/DTD/svg10.dtd">
<svg version="1.0" xmlns="http://www.w3.org/2000/svg"
 width="500.000000pt" height="500.000000pt" viewBox="0 0 500.000000 500.000000"
 preserveAspectRatio="xMidYMid meet">

<g transform="translate(0.000000,500.000000) scale(0.100000,-0.100000)"
fill="currentColor" stroke="none">
<path d="M2370 3352 c-44 -12 -133 -16 -432 -19 -222 -3 -378 -8 -378 -14 0
-5 14 -9 31 -9 38 0 103 -35 118 -64 17 -34 19 -68 20 -348 l1 -268 65 0 65 0
2 318 3 317 243 0 244 0 29 -33 c20 -22 29 -43 29 -67 0 -19 5 -35 10 -35 6 0
10 47 10 120 0 66 -1 120 -2 119 -2 -1 -28 -8 -58 -17z"/>
<path d="M2230 2910 c0 -5 15 -10 33 -10 17 0 46 -9 64 -20 48 -29 65 -70 67
-164 l1 -81 67 -3 67 -3 3 113 3 113 160 0 c153 0 163 -1 210 -26 59 -30 111
-94 127 -155 l12 -44 82 0 83 0 -8 28 c-24 81 -87 161 -164 206 -85 50 -134
56 -484 56 -209 0 -323 -4 -323 -10z"/>
<path d="M2637 2704 c-3 -20 -14 -45 -23 -55 -16 -18 -16 -19 14 -19 l32 0 0
55 c0 62 -14 74 -23 19z"/>
<path d="M2079 2546 c-27 -13 -38 -68 -18 -92 19 -24 66 -17 85 12 33 50 -14
107 -67 80z m45 -22 c19 -19 20 -25 3 -48 -18 -24 -51 -17 -55 12 -3 23 13 52
29 52 4 0 15 -7 23 -16z"/>
<path d="M1690 2495 c0 -30 5 -55 10 -55 6 0 10 11 10 24 0 18 7 26 23 29 l22
4 -22 2 c-35 2 -31 39 5 44 22 3 20 4 -10 6 l-38 1 0 -55z"/>
<path d="M2460 2495 c0 -30 5 -55 10 -55 6 0 10 12 10 26 l0 27 21 -27 c11
-14 27 -26 35 -26 20 0 17 9 -8 31 -13 10 -18 18 -12 19 15 0 25 26 18 45 -4
9 -19 15 -40 15 l-34 0 0 -55z m49 36 c16 -10 6 -31 -15 -31 -8 0 -14 9 -14
20 0 22 7 25 29 11z"/>
<path d="M2852 2538 c-7 -7 -12 -26 -12 -43 0 -41 16 -55 62 -55 36 0 38 2 38
30 0 23 -4 30 -20 30 -22 0 -27 -16 -7 -23 8 -3 6 -7 -5 -12 -27 -11 -48 2
-48 29 0 31 34 53 55 36 13 -11 30 1 18 14 -11 11 -68 7 -81 -6z"/>
<path d="M3250 2495 l0 -55 35 0 c19 0 35 5 35 10 0 6 -11 10 -25 10 -16 0
-25 6 -25 15 0 9 10 15 26 15 14 0 23 4 19 10 -3 6 -15 10 -26 10 -30 0 -23
28 9 33 22 3 20 4 -10 6 l-38 1 0 -55z"/>
<path d="M1729 2283 c-3 -276 -5 -308 -22 -340 -22 -41 -55 -63 -107 -70 -22
-3 -40 -10 -40 -14 0 -5 106 -9 235 -9 129 0 235 4 235 9 0 4 -19 11 -42 14
-51 7 -87 33 -110 78 -15 29 -18 63 -18 222 l0 187 -65 0 -65 0 -1 -77z"/>
<path d="M2396 2328 c-3 -18 -6 -199 -5 -401 0 -338 -1 -371 -18 -399 -21 -36
-76 -68 -115 -68 -16 0 -28 -4 -28 -10 0 -6 85 -10 236 -10 217 0 282 8 186
24 -22 3 -51 16 -67 28 -54 42 -55 54 -55 478 l0 390 -64 0 -64 0 -6 -32z"/>
<path d="M3007 2321 c-30 -45 -94 -92 -152 -111 -22 -8 -87 -16 -144 -19 -58
-3 -106 -11 -108 -16 -2 -6 11 -16 28 -24 18 -8 154 -150 342 -360 378 -420
450 -495 547 -574 83 -67 204 -128 291 -147 58 -13 247 -9 282 5 34 14 16 25
-40 25 -231 1 -384 124 -996 800 l-195 215 41 7 c97 18 178 72 236 160 23 33
41 64 41 69 0 5 -33 9 -74 9 l-73 0 -26 -39z"/>
</g>
</svg>
