<?xml version="1.0" standalone="no"?>
<!DOCTYPE svg PUBLIC "-//W3C//DTD SVG 20010904//EN"
 "http://www.w3.org/TR/2001/REC-SVG-20010904/DTD/svg10.dtd">
<svg version="1.0" xmlns="http://www.w3.org/2000/svg"
 width="500.000000pt" height="500.000000pt" viewBox="0 0 500.000000 500.000000"
 preserveAspectRatio="xMidYMid meet">

<g transform="translate(0.000000,500.000000) scale(0.100000,-0.100000)"
fill="currentColor" stroke="none">
<path d="M2246 4000 c-60 -10 -114 -24 -120 -31 -13 -13 12 -11 154 15 212 39
503 10 731 -75 386 -142 707 -444 865 -814 9 -22 31 -85 49 -140 22 -66 35
-94 40 -83 17 42 -107 330 -208 482 -84 127 -281 322 -412 409 -167 110 -374
195 -565 233 -132 26 -399 28 -534 4z"/>
<path d="M3060 3704 c-360 -67 -467 -88 -485 -95 -34 -13 -3 -10 90 10 105 23
440 81 467 81 13 0 -18 -42 -102 -140 -66 -77 -130 -146 -143 -155 -126 -89
-185 -138 -195 -162 -12 -28 -12 -28 5 -5 17 25 132 117 138 111 1 -2 -57 -71
-131 -152 -84 -93 -155 -163 -191 -186 -73 -47 -87 -64 -80 -98 4 -22 -6 -38
-62 -97 -101 -109 -274 -304 -284 -321 -23 -41 19 -3 113 102 246 275 274 304
299 309 109 22 331 123 470 214 77 50 114 68 126 63 14 -5 17 -3 12 10 -4 12
18 34 86 86 100 76 131 110 171 189 32 64 34 98 5 105 -29 8 -193 -36 -302
-79 -49 -20 -91 -34 -93 -32 -5 6 166 199 200 225 24 20 35 44 19 42 -5 -1
-64 -12 -133 -25z m315 -154 c4 -6 -11 -43 -32 -83 -30 -55 -56 -87 -114 -135
-130 -111 -176 -137 -274 -156 -48 -10 -140 -35 -204 -56 -64 -21 -117 -37
-119 -36 -1 2 64 76 144 166 141 156 150 164 228 201 89 41 295 108 338 109
15 0 30 -5 33 -10z m-415 -420 c-95 -70 -418 -219 -450 -208 -19 6 88 127 129
144 101 44 301 103 351 104 21 0 17 -6 -30 -40z m-456 -165 c-32 -39 -64 -58
-64 -38 0 9 82 83 92 83 5 0 -7 -20 -28 -45z"/>
<path d="M2465 3580 c-150 -45 -265 -107 -265 -142 0 -19 2 -19 20 5 31 39
104 78 225 119 113 38 126 50 20 18z"/>
<path d="M2990 2527 l0 -167 30 0 30 0 0 72 0 73 48 -67 c26 -37 50 -68 53
-68 3 0 28 32 55 71 l49 72 3 -77 3 -76 29 0 30 0 0 167 c0 92 -4 163 -8 157
-5 -5 -42 -55 -82 -111 -41 -57 -77 -103 -80 -103 -3 1 -40 51 -82 113 l-78
111 0 -167z"/>
<path d="M1030 2520 l0 -160 35 0 35 0 0 50 c0 48 1 50 29 50 79 0 121 40 121
115 0 38 -5 52 -29 76 -28 27 -34 29 -110 29 l-81 0 0 -160z m148 88 c16 -16
15 -53 -1 -67 -8 -6 -28 -14 -45 -17 l-32 -6 0 51 0 51 33 0 c18 0 38 -5 45
-12z"/>
<path d="M1660 2520 l0 -160 110 0 110 0 0 30 0 30 -75 0 -75 0 0 130 0 130
-35 0 -35 0 0 -160z"/>
<path d="M2300 2557 c0 -134 7 -154 60 -182 16 -8 50 -15 75 -15 38 0 52 6 83
34 l37 34 3 126 4 126 -30 0 -30 0 -4 -109 c-2 -90 -6 -113 -22 -130 -24 -27
-70 -27 -96 -1 -18 18 -20 33 -20 130 l0 110 -30 0 -30 0 0 -123z"/>
<path d="M3760 2520 l0 -160 115 0 115 0 0 30 0 30 -85 0 -85 0 0 35 0 35 70
0 70 0 0 30 c0 29 0 29 -67 32 l-68 3 -3 33 -3 32 80 0 81 0 0 30 0 30 -110 0
-110 0 0 -160z"/>
<path d="M1030 2110 c0 -28 62 -192 105 -280 218 -442 647 -754 1140 -832 118
-18 360 -15 480 6 88 16 133 31 122 42 -2 2 -50 -6 -108 -18 -150 -30 -402
-30 -549 1 -442 93 -784 333 -1017 716 -49 80 -121 248 -144 338 -13 48 -29
63 -29 27z"/>
<path d="M1510 2036 l0 -56 35 0 c19 0 35 5 35 10 0 6 -11 10 -25 10 -22 0
-25 4 -25 39 0 22 -4 43 -10 46 -6 4 -10 -15 -10 -49z"/>
<path d="M1930 2035 c0 -30 5 -55 10 -55 6 0 10 9 10 20 0 13 7 20 19 20 28 0
39 40 15 57 -10 7 -26 13 -36 13 -15 0 -18 -9 -18 -55z m48 18 c-5 -25 -28
-28 -28 -4 0 12 6 21 16 21 9 0 14 -7 12 -17z"/>
<path d="M2080 2036 l0 -56 35 0 c19 0 35 5 35 10 0 6 -11 10 -25 10 -22 0
-25 4 -25 39 0 22 -4 43 -10 46 -6 4 -10 -15 -10 -49z"/>
<path d="M2232 2044 c3 -54 25 -77 56 -58 11 7 18 27 20 58 2 32 0 46 -7 41
-6 -3 -11 -24 -11 -46 0 -32 -3 -39 -20 -39 -17 0 -20 7 -20 39 0 22 -5 43
-11 46 -7 5 -9 -9 -7 -41z"/>
<path d="M2597 2083 c-4 -3 -7 -28 -7 -55 l0 -48 41 0 c24 0 38 4 34 10 -3 6
-18 10 -31 10 -32 0 -27 22 7 31 24 7 24 7 -3 8 -40 1 -37 31 3 31 17 0 28 4
24 10 -7 11 -58 14 -68 3z"/>
<path d="M2858 2084 c-5 -4 -8 -29 -8 -56 l0 -48 35 0 c19 0 35 5 35 10 0 6
-11 10 -24 10 -22 0 -25 5 -28 46 -2 25 -6 42 -10 38z"/>
<path d="M3013 2035 c0 -33 2 -45 4 -27 2 18 2 45 0 60 -2 15 -4 0 -4 -33z"/>
<path d="M3110 2034 l0 -55 33 3 c30 3 32 5 33 43 1 48 -10 65 -42 65 -22 0
-24 -4 -24 -56z m48 24 c-6 -18 -28 -21 -28 -4 0 9 7 16 16 16 9 0 14 -5 12
-12z m2 -49 c0 -5 -7 -9 -15 -9 -8 0 -15 7 -15 15 0 9 6 12 15 9 8 -4 15 -10
15 -15z"/>
<path d="M3267 2083 c-11 -10 -8 -103 3 -103 6 0 10 9 10 20 0 11 4 20 10 20
5 0 14 -9 20 -20 6 -11 15 -20 21 -20 6 0 6 6 0 18 -5 9 -7 30 -4 46 4 18 1
31 -8 37 -17 10 -43 12 -52 2z m49 -24 c3 -6 0 -15 -7 -20 -22 -14 -29 -11
-29 11 0 21 24 27 36 9z"/>
<path d="M3420 2035 l0 -55 41 0 c24 0 38 4 34 10 -3 6 -17 10 -31 10 -34 0
-31 28 4 33 l27 4 -27 2 c-36 1 -39 31 -3 31 14 0 25 5 25 10 0 6 -16 10 -35
10 l-35 0 0 -55z"/>
<path d="M1672 2030 c-12 -27 -17 -50 -13 -50 5 0 11 7 15 15 7 19 30 19 46 0
7 -9 15 -13 18 -11 6 6 -31 96 -39 96 -4 0 -16 -22 -27 -50z m38 -1 c0 -5 -4
-9 -10 -9 -5 0 -10 7 -10 16 0 8 5 12 10 9 6 -3 10 -10 10 -16z"/>
<path d="M2401 2030 c1 -40 3 -47 8 -26 l6 28 19 -21 18 -20 19 22 18 22 1
-27 c0 -16 5 -28 10 -28 6 0 10 23 10 50 0 28 -3 50 -7 50 -5 0 -17 -14 -28
-30 -19 -29 -35 -39 -35 -22 0 4 -9 18 -20 32 l-20 25 1 -55z"/>
<path d="M2100 1705 c0 -32 2 -35 28 -34 23 2 24 2 5 6 -27 5 -30 20 -5 26 16
4 16 5 0 6 -26 2 -22 19 5 24 19 4 18 4 -5 6 -26 1 -28 -2 -28 -34z"/>
<path d="M2204 1728 c-4 -6 0 -16 9 -23 22 -16 21 -22 0 -28 -14 -4 -12 -5 5
-6 27 -1 31 33 5 44 -17 7 -16 8 2 15 16 7 17 9 3 9 -9 1 -20 -4 -24 -11z"/>
<path d="M2297 1732 c6 -4 13 -21 16 -37 l4 -30 2 32 c0 17 7 34 14 36 6 3 -1
6 -18 6 -16 0 -25 -3 -18 -7z"/>
<path d="M2390 1705 c0 -34 2 -36 28 -33 23 3 27 8 27 33 0 25 -4 30 -27 33
-26 3 -28 1 -28 -33z m45 0 c0 -10 -6 -20 -12 -22 -8 -3 -13 5 -13 22 0 17 5
25 13 23 6 -3 12 -13 12 -23z"/>
<path d="M2575 1721 c-3 -5 -1 -12 5 -16 5 -3 10 -1 10 4 0 6 4 11 10 11 5 0
7 -8 3 -17 -5 -14 -3 -15 7 -6 7 6 9 16 6 22 -9 13 -33 14 -41 2z"/>
<path d="M2672 1703 c2 -20 8 -28 23 -28 31 0 28 49 -3 53 -20 3 -23 0 -20
-25z m36 0 c-5 -25 -28 -28 -28 -4 0 12 6 21 16 21 9 0 14 -7 12 -17z"/>
<path d="M2770 1713 c0 -15 2 -16 10 -3 5 8 12 11 16 7 4 -4 -1 -16 -11 -27
-18 -19 -17 -20 1 -20 14 0 20 8 21 30 2 24 -2 30 -17 30 -12 0 -20 -7 -20
-17z"/>
<path d="M2880 1714 c-11 -12 -10 -18 3 -32 16 -15 17 -14 17 16 0 36 -2 38
-20 16z"/>
<path d="M2585 1680 c-4 -6 3 -10 14 -10 25 0 27 6 6 13 -8 4 -17 2 -20 -3z"/>
</g>
</svg>
